<?xml version="1.0" standalone="no"?>
<!DOCTYPE svg PUBLIC "-//W3C//DTD SVG 20010904//EN"
 "http://www.w3.org/TR/2001/REC-SVG-20010904/DTD/svg10.dtd">
<svg version="1.0" xmlns="http://www.w3.org/2000/svg"
 width="954.000000pt" height="872.000000pt" viewBox="0 0 954.000000 872.000000"
 preserveAspectRatio="xMidYMid meet">

<g transform="translate(0.000000,872.000000) scale(0.100000,-0.100000)"
fill="#000000" stroke="none">
<path d="M5304 7881 l-248 -209 -157 162 c-106 109 -174 171 -210 191 -50 27
-61 29 -149 27 -52 -1 -104 -4 -115 -6 -11 -2 -61 -7 -112 -11 -132 -10 -132
-11 -89 -124 20 -51 36 -95 36 -97 0 -2 -108 50 -240 116 -132 67 -248 120
-258 118 -18 -4 -18 -2 -12 -143 4 -83 21 -79 -175 -41 -168 33 -358 41 -485
21 -92 -15 -252 -68 -270 -91 -20 -23 30 -93 142 -199 57 -53 94 -95 83 -91
-114 31 -212 41 -410 40 -200 0 -214 -1 -300 -28 -49 -15 -94 -31 -99 -36 -7
-7 59 -215 108 -340 4 -11 -18 -24 -92 -54 -435 -175 -895 -486 -1242 -842
-341 -349 -525 -658 -667 -1117 -43 -137 -47 -162 -48 -252 0 -84 4 -107 22
-145 43 -86 465 -592 615 -736 86 -83 152 -128 225 -151 l52 -16 -65 -130
c-45 -88 -64 -137 -60 -152 14 -53 123 -157 213 -201 l52 -26 -73 -106 c-40
-59 -78 -128 -86 -155 -29 -104 22 -456 80 -550 17 -27 30 -50 30 -53 0 -3
-29 -45 -65 -93 -36 -49 -65 -98 -65 -109 0 -23 0 -22 203 -270 148 -180 231
-263 284 -283 13 -5 33 -31 49 -65 29 -61 85 -120 288 -302 l118 -107 -38 -7
c-22 -4 -60 -10 -86 -13 -25 -3 -48 -12 -51 -19 -6 -15 97 -242 207 -456 192
-373 191 -372 154 -414 -17 -20 -36 -28 -74 -33 -50 -5 -55 -3 -116 40 -71 51
-117 72 -129 60 -8 -8 4 -235 17 -340 l5 -43 136 0 135 0 -4 35 c-2 19 -2 35
-1 35 2 0 21 -9 42 -20 100 -50 197 -50 256 1 64 56 57 115 -35 279 -32 58
-87 173 -123 257 -69 158 -122 266 -157 319 l-21 32 63 1 c35 0 90 7 123 14
54 11 60 15 57 36 -5 45 -70 116 -291 318 l-224 204 2 230 c3 263 9 241 -103
357 -60 62 -119 102 -151 102 -9 0 -47 -28 -83 -62 -132 -124 -128 -120 -140
-105 -9 11 27 65 168 257 99 135 180 250 180 258 0 59 -163 220 -240 237 -22
5 -41 0 -76 -21 l-47 -28 5 46 c8 69 53 155 176 338 73 106 112 174 112 191 0
57 -121 173 -230 222 -25 11 -46 21 -48 22 -2 2 51 111 117 244 67 132 121
248 121 256 0 33 -40 92 -102 151 -66 64 -113 94 -147 94 -12 0 -57 -27 -101
-60 -105 -77 -209 -128 -290 -141 -35 -5 -69 -14 -76 -20 -18 -15 -57 23 -151
149 -48 64 -123 158 -166 207 -104 118 -159 203 -123 189 13 -5 16 1 16 27 0
45 43 233 76 334 88 268 247 554 439 793 357 442 941 865 1473 1066 39 15 72
33 72 40 0 7 -23 78 -51 157 -76 214 -73 195 -31 216 32 15 66 17 267 17 244
0 323 -9 534 -59 121 -30 136 -25 106 32 -27 49 -102 130 -219 232 l-96 85 33
14 c88 37 198 52 367 48 164 -4 267 -21 421 -70 69 -21 73 -15 64 104 -4 56
-3 101 2 99 4 -2 117 -59 250 -126 133 -68 251 -123 263 -123 29 0 26 21 -20
139 -22 56 -40 104 -40 107 0 2 26 4 58 4 31 0 100 5 153 12 l95 12 80 -85
c257 -273 330 -339 375 -339 10 0 66 40 124 90 l106 89 54 -54 c30 -29 74 -65
99 -80 45 -26 45 -26 298 -29 204 -3 276 -7 373 -24 269 -48 469 -122 645
-238 195 -128 459 -397 687 -700 95 -126 279 -392 288 -416 5 -11 -20 -20
-115 -42 -66 -15 -123 -32 -126 -37 -14 -24 12 -66 90 -142 65 -65 107 -95
198 -145 349 -192 615 -488 744 -829 28 -75 112 -392 145 -548 13 -64 23 -155
26 -256 12 -336 -38 -404 -369 -510 -97 -31 -158 -56 -162 -65 -3 -9 -6 -33
-6 -54 0 -57 -25 -178 -49 -232 -28 -66 -92 -132 -154 -158 -46 -20 -60 -22
-127 -15 -157 17 -184 13 -310 -44 -63 -29 -202 -89 -309 -134 l-194 -81 6
-126 c3 -69 11 -206 18 -305 6 -99 9 -229 6 -289 -5 -100 -9 -116 -41 -180
-37 -73 -96 -149 -250 -325 -100 -115 -101 -119 -39 -195 21 -26 121 -121 223
-212 102 -92 186 -169 187 -173 1 -3 -36 -37 -82 -76 -58 -48 -85 -77 -85 -92
0 -12 25 -52 56 -90 131 -161 264 -339 361 -485 l106 -158 79 0 c61 0 77 3 72
13 -35 59 -187 275 -266 376 -54 69 -97 128 -98 131 0 3 43 41 96 85 83 70 94
83 89 104 -11 43 -62 98 -267 283 l-199 180 27 36 c43 58 103 130 186 225 42
48 89 113 105 145 26 53 28 66 28 177 0 66 -5 194 -12 285 -7 91 -13 220 -15
288 l-3 124 70 30 c39 16 126 52 194 80 68 27 172 71 232 99 102 46 112 48
151 39 75 -17 201 -12 261 10 127 48 200 162 217 339 5 56 14 110 20 121 15
29 54 46 239 106 195 63 228 85 262 172 70 180 7 737 -126 1122 -132 380 -406
746 -773 1029 -67 52 -119 97 -117 102 3 4 24 10 48 14 46 8 67 20 67 41 0 18
-244 381 -359 534 -327 435 -704 816 -1001 1014 -262 175 -629 301 -979 336
-58 5 -106 11 -107 13 -2 1 6 47 16 101 19 94 19 101 2 135 -36 77 -185 201
-241 201 -10 0 -130 -93 -267 -209z"/>
<path d="M1970 6023 c-167 -226 -478 -567 -547 -600 -17 -8 -53 -37 -78 -64
-53 -57 -53 -69 1 -135 37 -47 118 -104 145 -104 25 0 253 194 332 283 15 17
27 27 27 21 0 -28 -120 -247 -202 -369 -52 -77 -128 -190 -169 -250 -41 -61
-85 -131 -99 -157 l-25 -47 21 -28 c36 -49 64 -51 131 -12 83 48 267 235 339
344 118 178 231 428 299 665 37 128 85 339 85 376 0 43 -129 164 -174 164 -16
0 -40 -25 -86 -87z"/>
<path d="M3332 5145 c-147 -41 -267 -137 -330 -263 -34 -70 -37 -82 -37 -162
1 -74 5 -94 32 -152 55 -116 139 -181 281 -214 215 -51 476 76 539 261 49 146
-16 380 -133 472 -22 17 -57 38 -79 48 -56 24 -204 29 -273 10z"/>
<path d="M7469 4793 c0 -16 -2 -48 -5 -73 -31 -277 -65 -478 -119 -695 -38
-155 -155 -525 -166 -525 -3 0 -9 17 -12 38 -19 114 -117 398 -178 513 -27 50
-99 119 -124 119 -15 0 7 -121 51 -280 49 -180 84 -356 109 -550 18 -140 28
-162 104 -233 70 -66 93 -69 142 -21 22 22 53 66 69 99 34 72 157 448 195 597
l28 106 61 -64 c68 -71 93 -79 125 -37 43 53 54 125 48 288 -6 171 -31 309
-83 476 -38 122 -57 150 -157 230 -59 47 -87 51 -88 12z"/>
<path d="M5856 4629 c-129 -21 -226 -71 -310 -158 -129 -136 -149 -303 -58
-476 62 -116 214 -227 349 -256 216 -44 461 78 533 268 74 192 -37 500 -212
589 -74 38 -196 51 -302 33z"/>
<path d="M4059 3550 c-143 -26 -247 -123 -328 -308 -24 -55 -44 -120 -52 -168
-10 -72 -10 -84 9 -139 69 -202 66 -195 150 -275 43 -41 106 -91 140 -110 97
-54 92 -48 80 -106 l-10 -51 -172 -6 c-179 -5 -266 -18 -287 -43 -16 -20 -1
-51 53 -110 56 -61 100 -88 195 -120 68 -24 98 -28 238 -31 136 -4 176 -2 262
16 56 12 126 30 156 42 58 22 110 64 104 82 -6 19 -63 42 -208 87 -73 22 -135
42 -136 44 -2 2 1 26 7 53 l11 50 77 5 c60 4 108 17 222 59 177 65 205 89 282
234 l52 100 4 136 c3 108 1 149 -13 195 -32 114 -104 194 -230 257 -146 73
-476 131 -606 107z"/>
<path d="M2980 1271 c0 -38 193 -197 337 -278 138 -77 344 -145 528 -174 114
-19 414 -16 555 4 305 45 558 138 733 270 37 28 67 59 67 68 0 23 -43 73 -84
99 l-34 20 -114 -29 c-63 -17 -218 -63 -344 -105 -351 -114 -428 -132 -617
-145 -343 -24 -659 55 -937 233 -36 23 -71 45 -77 50 -9 5 -13 1 -13 -13z"/>
</g>
</svg>
